<svg width="82" height="89" viewBox="0 0 82 89" fill="none" xmlns="http://www.w3.org/2000/svg">
<path d="M81.9958 26.166C81.9952 24.6695 81.6638 23.3472 80.9935 22.2123C80.3352 21.0963 79.3493 20.1609 78.0268 19.4213C67.1103 13.3427 56.1833 7.28271 45.2703 1.19793C42.3283 -0.442323 39.4757 -0.382526 36.5555 1.28127C32.2104 3.7559 10.4561 15.7919 3.97356 19.4179C1.30388 20.9104 0.00481255 23.1944 0.00417087 26.1632C0 38.3877 0.00417087 50.6118 0 62.8365C0 64.3001 0.317949 65.5968 0.958659 66.7147C1.61734 67.8644 2.61706 68.8255 3.97003 69.5818C10.4528 73.2078 32.21 85.2429 36.5542 87.7182C39.4757 89.3829 42.3283 89.4424 45.2713 87.8015C56.1845 81.7164 67.1122 75.6567 78.0303 69.5781C79.3833 68.8221 80.383 67.8604 81.0417 66.7116C81.6814 65.5937 82 64.297 82 62.8331C82 62.8331 82 38.3908 81.9958 26.166Z" fill="#A179DC"/>
<path d="M41.1255 44.3807L0.958659 66.7147C1.61734 67.8644 2.61706 68.8255 3.97003 69.5818C10.4528 73.2078 32.21 85.2429 36.5542 87.7182C39.4757 89.3829 42.3283 89.4424 45.2713 87.8015C56.1845 81.7164 67.1122 75.6567 78.0303 69.5781C79.3833 68.8221 80.383 67.8604 81.0417 66.7116L41.1255 44.3807Z" fill="#280068"/>
<path d="M81.9958 26.166C81.9952 24.6695 81.6638 23.3472 80.9935 22.2123L41.1255 44.3807L81.0417 66.7116C81.6814 65.5937 82 64.297 82 62.8331C82 62.8331 82 38.3908 81.9958 26.166Z" fill="#390091"/>
<path d="M64.7744 36.0316V40.2062H69.0972V36.0316H71.2587V40.2062H75.5815V42.2934H71.2587V46.468H75.5815V48.5553H71.2587V52.7299H69.0972V48.5553H64.7744V52.7299H62.613V48.5553H58.2901V46.468H62.613V42.2934H58.2901V40.2062H62.613V36.0316H64.7744ZM69.0972 42.2934H64.7744V46.468H69.0972V42.2934Z" fill="white"/>
<path d="M41.2136 15.0658C52.489 15.0658 62.3333 20.9794 67.6062 29.7692L67.5547 29.6846L54.2886 37.0612C51.6749 32.7875 46.8832 29.9034 41.3867 29.844L41.2136 29.8431C32.8316 29.8431 26.0361 36.4052 26.0361 44.4997C26.0361 47.1468 26.7669 49.6281 28.0378 51.7713C30.6539 56.1818 35.5719 59.1566 41.2136 59.1566C46.8901 59.1566 51.8361 56.144 54.439 51.6863L54.3757 51.7933L67.6219 59.2039C62.4069 67.9193 52.6975 73.8146 41.5531 73.9321L41.2136 73.9339C29.9026 73.9339 20.0303 67.9839 14.7707 59.1476C12.2031 54.8338 10.734 49.8327 10.734 44.4997C10.734 28.244 24.3799 15.0658 41.2136 15.0658Z" fill="white"/>
</svg>
