<svg width="64" height="46" viewBox="0 0 64 46" fill="none" xmlns="http://www.w3.org/2000/svg">
<path d="M53.8671 3.92803C49.7888 2.13543 45.4283 0.832585 40.8697 0.0908203C40.3096 1.0418 39.6556 2.32086 39.2047 3.33841C34.3585 2.65371 29.5569 2.65371 24.8 3.33841C24.3492 2.32086 23.6801 1.0418 23.1153 0.0908203C18.5516 0.832585 14.1861 2.14019 10.108 3.93754C1.88244 15.6156 -0.34738 27.0036 0.767531 38.2299C6.22316 42.0576 11.5103 44.3827 16.7083 45.9042C17.9917 44.2448 19.1363 42.4808 20.1224 40.6216C18.2444 39.9511 16.4457 39.1239 14.746 38.1632C15.1969 37.8496 15.638 37.5214 16.0641 37.1839C26.4304 41.739 37.6933 41.739 47.9358 37.1839C48.3667 37.5214 48.8078 37.8496 49.2538 38.1632C47.5492 39.1285 45.7455 39.9559 43.8675 40.6264C44.8536 42.4808 45.9932 44.2496 47.2815 45.909C52.4844 44.3875 57.7766 42.0624 63.2322 38.2299C64.5405 25.2158 60.9975 13.9323 53.8671 3.92803ZM21.5346 31.3258C18.4228 31.3258 15.8708 28.5964 15.8708 25.2729C15.8708 21.9491 18.3682 19.2151 21.5346 19.2151C24.701 19.2151 27.2528 21.9444 27.1983 25.2729C27.2034 28.5964 24.701 31.3258 21.5346 31.3258ZM42.4653 31.3258C39.3534 31.3258 36.8014 28.5964 36.8014 25.2729C36.8014 21.9491 39.2989 19.2151 42.4653 19.2151C45.6314 19.2151 48.1835 21.9444 48.129 25.2729C48.129 28.5964 45.6314 31.3258 42.4653 31.3258Z" fill="#5865F2"/>
</svg>
