<svg width="83" height="83" viewBox="0 0 83 83" fill="none" xmlns="http://www.w3.org/2000/svg">
<mask id="mask0_29_56" style="mask-type:alpha" maskUnits="userSpaceOnUse" x="0" y="0" width="83" height="83">
<path d="M83 0H0V83H83V0Z" fill="white"/>
</mask>
<g mask="url(#mask0_29_56)">
<path d="M67.8525 40.3483C67.8525 56.2913 58.1346 59.8188 48.9008 60.8217C50.3533 62.0667 51.7021 64.6259 51.7021 68.4992C51.7021 74.0671 51.6675 78.5283 51.6675 79.8771C51.6675 80.9492 52.3937 82.2634 54.5033 81.8484C71.1379 76.4188 83 60.8563 83 42.5271C83 19.5983 64.4287 1.0271 41.5 1.0271C18.5712 1.0271 0 19.5983 0 42.5271C0 60.8563 11.8967 76.4188 28.3929 81.9175C30.4679 82.2979 31.2287 81.0183 31.2287 79.9117C31.2287 78.9088 31.1942 76.315 31.1596 72.8567C19.6088 75.3467 17.1879 67.2888 17.1879 67.2888C15.2858 62.4817 12.5538 61.2021 12.5538 61.2021C8.81875 58.6429 12.865 58.6775 12.865 58.6775C17.015 58.9888 19.2283 62.9658 19.2283 62.9658C22.9287 69.3292 28.9117 67.4963 31.2979 66.4242C31.6783 63.7267 32.7504 61.8938 33.9263 60.8563C24.7271 59.8188 15.0092 56.2567 15.0092 40.3483C15.0092 35.8179 16.6346 32.1175 19.2975 29.2125C18.8133 28.175 17.43 23.9558 19.6433 18.2496C19.6433 18.2496 23.1362 17.1429 31.0558 22.5033C34.3758 21.5696 37.9033 21.12 41.4308 21.0854C44.9583 21.12 48.4858 21.5696 51.8058 22.5033C59.6908 17.1429 63.1838 18.2496 63.1838 18.2496C65.3971 23.9558 64.0137 28.175 63.5987 29.2125C66.2271 32.1175 67.8525 35.8179 67.8525 40.3483Z" fill="#EDDDD4"/>
</g>
</svg>
