<svg width="67" height="52" viewBox="0 0 67 52" fill="none" xmlns="http://www.w3.org/2000/svg">
<path d="M4.56818 50.6068H15.2273V24.543L0 13.0442V46.0073C0 48.5486 2.04426 50.6068 4.56818 50.6068Z" fill="#4285F4"/>
<path d="M51.7727 50.6068H62.4318C64.9557 50.6068 67 48.5486 67 46.0073V13.0442L51.7727 24.543V50.6068Z" fill="#34A853"/>
<path d="M51.7727 4.6119V24.5431L67 13.0443V6.91166C67 1.22743 60.555 -2.01906 56.0363 1.39225L51.7727 4.6119Z" fill="#FBBC04"/>
<path fill-rule="evenodd" clip-rule="evenodd" d="M15.2273 24.543V4.61182L33.5 18.4103L51.7728 4.61182V24.543L33.5 38.3415L15.2273 24.543Z" fill="#EA4335"/>
<path d="M0 6.91166V13.0443L15.2273 24.5431V4.6119L10.9636 1.39225C6.44494 -2.01906 0 1.22743 0 6.91166Z" fill="#C5221F"/>
</svg>
