<svg width="84" height="75" viewBox="0 0 84 75" fill="none" xmlns="http://www.w3.org/2000/svg">
<path d="M10.9514 0.463824C7.28734 2.6231 0.0684675 10.8542 0 13.0127V16.5858C0 21.115 4.26552 25.0958 8.13839 25.0958C12.7887 25.0958 16.6633 21.2706 16.6636 16.7306C16.6636 21.2706 20.4054 25.0958 25.056 25.0958C29.707 25.0958 33.3286 21.2706 33.3286 16.7306C33.3286 21.2706 37.3072 25.0958 41.9579 25.0958H42.0421C46.6931 25.0958 50.6717 21.2706 50.6717 16.7306C50.6717 21.2706 54.2937 25.0958 58.944 25.0958C63.5946 25.0958 67.3364 21.2706 67.3364 16.7306C67.3364 21.2706 71.2116 25.0958 75.8616 25.0958C79.7345 25.0958 84 21.1157 84 16.5858V13.0127C83.9315 10.8538 76.7127 2.62242 73.0493 0.463824C61.6611 0.0669661 53.7661 -0.00166854 41.9997 3.03369e-05C30.2335 0.00104966 14.193 0.183509 10.9514 0.463824ZM33.2697 22.9627C32.8251 23.7321 32.2743 24.436 31.6333 25.054C29.8778 26.7577 27.4715 27.8137 24.8188 27.8137C22.2661 27.8161 19.8142 26.8248 17.9898 25.0527C17.3538 24.4343 16.8704 23.7731 16.4277 23.0032L16.4257 23.0045C15.9834 23.7758 15.3672 24.4367 14.7298 25.0557C12.9046 26.8265 10.4531 27.817 7.9008 27.8147C7.58106 27.8147 7.24831 27.7271 6.97923 27.6353C6.6054 31.4992 6.44758 35.1919 6.39178 37.8843L6.3911 37.8996C6.38425 39.2668 6.3774 40.3912 6.37056 41.9531C6.44245 50.0602 5.56161 68.2293 9.97194 72.6936C16.8064 74.2753 29.3825 74.9956 41.9993 75H42.0014C54.6179 74.9956 67.194 74.2753 74.0284 72.6936C78.4387 68.229 77.5579 50.0598 77.6298 41.9528C77.6223 40.3912 77.6161 39.2668 77.6092 37.8993L77.6082 37.884C77.5528 35.1909 77.3949 31.4986 77.0211 27.6346C76.752 27.7264 76.4196 27.814 76.0995 27.814C73.5473 27.8163 71.0957 26.8258 69.2706 25.0551C68.6332 24.436 68.017 23.7755 67.5743 23.0038L67.5723 23.0025C67.1293 23.7724 66.6462 24.434 66.0102 25.052C64.1858 26.8239 61.7341 27.8151 59.1816 27.8127C56.5291 27.8127 54.1225 26.756 52.367 25.0527C51.7261 24.4346 51.1753 23.7307 50.7306 22.9614C50.2907 23.7299 49.745 24.4337 49.1093 25.0527C47.2845 26.8244 44.8325 27.8155 42.2797 27.813C42.1873 27.813 42.0948 27.8089 42.0024 27.8062H42C41.9076 27.8089 41.8151 27.813 41.7217 27.813C39.1689 27.8156 36.717 26.8247 34.8921 25.053C34.2563 24.4341 33.7106 23.7302 33.2707 22.9617L33.2697 22.9627ZM26.2566 31.9634L26.2559 31.9668H26.261C29.0384 31.9726 31.5057 31.9668 34.5627 35.2782C36.9687 35.0278 39.4828 34.9028 41.999 34.9065H42.001C44.5172 34.9031 47.0313 35.0278 49.4376 35.2782C52.4947 31.9664 54.9619 31.9722 57.7393 31.9668H57.7441L57.7434 31.9634C59.0556 31.9634 64.3046 31.9634 67.9622 42.159L71.8908 56.1459C74.8021 66.5511 70.9587 66.8056 66.1646 66.8148C59.0549 66.5522 55.1184 61.4277 55.1184 56.3039C51.1829 56.944 46.5918 57.2641 42.0007 57.2644H41.9986C37.4072 57.2644 32.8161 56.944 28.881 56.3039C28.881 61.4277 24.9441 66.5522 17.8348 66.8148C13.0407 66.8056 9.19758 66.5515 12.1088 56.1459L16.0385 42.1594C19.696 31.9637 24.9444 31.9634 26.2566 31.9634ZM41.999 39.976V39.978C41.9921 39.9848 34.5145 46.8007 33.1701 49.225L38.0669 49.0303V53.2687C38.0669 53.4671 40.0319 53.3862 41.999 53.2958H42.001C43.9674 53.3862 45.9328 53.4671 45.9328 53.2687V49.0303L50.8296 49.225C49.4849 46.8007 42.0007 39.978 42.0007 39.978V39.976H41.999Z" fill="white"/>
</svg>
