<svg width="84" height="84" viewBox="0 0 84 84" fill="none" xmlns="http://www.w3.org/2000/svg">
<path d="M26.5349 70H14.9248V32.6117H26.5349V70ZM20.7236 27.5116C17.0111 27.5116 13.9998 24.4365 13.9998 20.7239C13.9998 17.0104 17.0101 14 20.7236 14C24.437 14 27.4474 17.0104 27.4474 20.7239C27.4474 24.4365 24.4349 27.5116 20.7236 27.5116ZM69.9877 70H58.4026V51.7996C58.4026 47.462 58.3151 41.8994 52.3663 41.8994C46.33 41.8994 45.405 46.612 45.405 51.4871V70H33.8074V32.6117H44.9425V37.7118H45.105C46.655 34.7742 50.4413 31.6741 56.0901 31.6741C67.8402 31.6741 70.0002 39.4118 70.0002 49.462V70H69.9877Z" fill="#2867B2"/>
</svg>
