<svg width="81" height="83" viewBox="0 0 81 83" fill="none" xmlns="http://www.w3.org/2000/svg">
<path d="M40.2076 0C19.645 0 20.9289 9.18517 20.9289 9.18517L20.9519 18.7012H40.5744V21.5581H13.1579C13.1579 21.5581 0 20.021 0 41.3927C0 62.7644 11.4845 62.0064 11.4845 62.0064H18.3387V52.0891C18.3387 52.0891 17.9691 40.2593 29.6399 40.2593H49.1017C49.1017 40.2593 60.0362 40.4413 60.0362 29.3739V11.0742C60.0362 11.0742 61.6964 0 40.2076 0ZM29.3878 6.39895C31.3399 6.39895 32.9179 8.02438 32.9179 10.0354C32.9179 12.0462 31.3399 13.6716 29.3878 13.6716C27.4355 13.6716 25.8575 12.0462 25.8575 10.0354C25.8575 8.02438 27.4355 6.39895 29.3878 6.39895Z" fill="url(#paint0_linear_29_50)"/>
<path d="M40.7926 83C61.3552 83 60.0711 73.8148 60.0711 73.8148L60.0481 64.2988H40.4258V61.4417H67.8421C67.8421 61.4417 81 62.9789 81 41.6073C81 20.2356 69.5155 20.9936 69.5155 20.9936H62.6614V30.9109C62.6614 30.9109 63.0309 42.7407 51.3601 42.7407H31.8983C31.8983 42.7407 20.9638 42.5587 20.9638 53.6261V71.9258C20.9638 71.9258 19.3036 83 40.7926 83ZM51.6124 76.601C49.6601 76.601 48.0821 74.9756 48.0821 72.9646C48.0821 70.9538 49.6601 69.3284 51.6124 69.3284C53.5645 69.3284 55.1425 70.9538 55.1425 72.9646C55.1425 74.9756 53.5645 76.601 51.6124 76.601Z" fill="url(#paint1_linear_29_50)"/>
<defs>
<linearGradient id="paint0_linear_29_50" x1="10.497" y1="9.99273" x2="65.8142" y2="63.5573" gradientUnits="userSpaceOnUse">
<stop stop-color="#387EB8"/>
<stop offset="1" stop-color="#366994"/>
</linearGradient>
<linearGradient id="paint1_linear_29_50" x1="32.4234" y1="33.7513" x2="76.7323" y2="74.4154" gradientUnits="userSpaceOnUse">
<stop stop-color="#FFE052"/>
<stop offset="1" stop-color="#FFC331"/>
</linearGradient>
</defs>
</svg>
