<svg width="83" height="83" viewBox="0 0 83 83" fill="none" xmlns="http://www.w3.org/2000/svg">
<path d="M19.3688 59.2679C18.6251 59.9034 17.587 60.0664 16.6843 59.6893L11.9702 57.7116C11.0088 57.3106 10.3806 56.3734 10.375 55.3318V27.6695C10.3806 26.6279 11.0088 25.6907 11.9702 25.2897L16.6843 23.3444C17.587 22.9674 18.6251 23.1304 19.3688 23.7659L20.4258 24.6413C19.9888 24.3271 19.4125 24.2843 18.9339 24.5305C18.4552 24.7766 18.1549 25.2703 18.1563 25.8085V57.1929C18.1549 57.7311 18.4552 58.2247 18.9339 58.4709C19.4125 58.717 19.9888 58.6742 20.4258 58.36L19.3688 59.2679Z" fill="#52218A"/>
<path d="M11.9702 57.7114C11.0088 57.3104 10.3806 56.3732 10.375 55.3316V55.1177C10.3815 55.7302 10.7604 56.277 11.3316 56.4984C11.9028 56.7197 12.5512 56.5709 12.9688 56.1227L53.1719 11.6724C54.3385 10.5115 56.1094 10.2103 57.5942 10.9202L70.4203 17.0933C71.7685 17.7415 72.6256 19.1054 72.625 20.6013V20.7505C72.6242 19.8013 72.0768 18.9374 71.2189 18.5313C70.3609 18.1252 69.3458 18.2495 68.6112 18.8506L20.4258 58.3599L19.3688 59.2677C18.6251 59.9032 17.587 60.0662 16.6843 59.6892L11.9702 57.7114Z" fill="#6C33AF"/>
<path d="M11.9702 25.2897C11.0088 25.6907 10.3806 26.6279 10.375 27.6695V27.8835C10.3815 27.2709 10.7604 26.7241 11.3316 26.5028C11.9028 26.2814 12.5512 26.4302 12.9688 26.8784L53.1719 71.3288C54.3385 72.4896 56.1094 72.7908 57.5942 72.081L70.4203 65.9078C71.7685 65.2596 72.6256 63.8958 72.625 62.3998V62.2507C72.6242 63.1999 72.0768 64.0637 71.2189 64.4698C70.3609 64.8759 69.3458 64.7517 68.6112 64.1506L20.4258 24.6413L19.3688 23.7335C18.6185 23.1089 17.5811 22.9586 16.6843 23.3444L11.9702 25.2897Z" fill="#854CC7"/>
<path d="M57.5942 72.0809C56.1094 72.7908 54.3385 72.4896 53.1719 71.3287C53.8253 71.9774 54.8045 72.17 55.6549 71.8171C56.5053 71.4642 57.0604 70.6349 57.0625 69.7141V13.3001C57.0657 12.377 56.5125 11.5428 55.6609 11.1866C54.8093 10.8303 53.827 11.0221 53.1719 11.6725C54.3385 10.5116 56.1094 10.2104 57.5942 10.9203L70.4203 17.0869C71.7685 17.7352 72.6256 19.099 72.625 20.595V62.4062C72.6256 63.9022 71.7685 65.266 70.4203 65.9143L57.5942 72.0809Z" fill="#B179F1"/>
<path d="M55.0459 72.3663C55.9031 72.5619 56.8014 72.4613 57.5942 72.081L70.4203 65.9143C71.7685 65.2661 72.6256 63.9022 72.625 62.4063V20.595C72.6256 19.0991 71.7685 17.7352 70.4203 17.087L57.5942 10.9203C56.6867 10.4841 55.6454 10.4167 54.6892 10.7323C54.1174 10.9239 53.5979 11.2458 53.1719 11.6725L32.4997 34.5364L20.4258 24.6413L19.3688 23.7335C18.7236 23.1818 17.8493 22.9808 17.028 23.1953C16.9095 23.2214 16.7942 23.2606 16.6843 23.312L11.9702 25.2897C11.0706 25.6612 10.4546 26.505 10.375 27.475C10.375 27.5398 10.375 27.6046 10.375 27.6695V55.3318C10.375 55.3967 10.375 55.4615 10.375 55.5264C10.4546 56.4964 11.0706 57.3401 11.9702 57.7116L16.6843 59.6569C16.7942 59.7083 16.9095 59.7474 17.028 59.7736C17.8493 59.9881 18.7236 59.7871 19.3688 59.2354L20.4258 58.36L32.4997 48.4649L53.1719 71.3288C53.6872 71.8431 54.3364 72.2026 55.0459 72.3663ZM57.0625 28.3244L40.9877 41.5007L57.0625 54.6769V28.3244ZM18.1562 32.5976L26.2034 41.5007L18.1562 50.4037V32.5976Z" fill="url(#paint0_linear_29_61)" fill-opacity="0.25"/>
<defs>
<linearGradient id="paint0_linear_29_61" x1="41.5" y1="10.5378" x2="41.5" y2="72.4635" gradientUnits="userSpaceOnUse">
<stop stop-color="white"/>
<stop offset="1" stop-color="white" stop-opacity="0"/>
</linearGradient>
</defs>
</svg>
